<svg width="350" height="350" viewBox="0 0 350 350" fill="none" xmlns="http://www.w3.org/2000/svg">
<g clip-path="url(#clip0_21_13)">
<rect width="350" height="350" fill="white"/>
<rect x="422.387" y="175.038" width="247.5" height="495" transform="rotate(90 422.387 175.038)" fill="#D7282B"/>
<rect x="422.387" y="-72.4623" width="247.5" height="495" transform="rotate(90 422.387 -72.4623)" fill="#33398F"/>
<path d="M69.375 199.875V191.75H45V183.625H69.375V175.5H53.125V167.375H45V159.25H53.125V151.125H69.375V143H77.5V151.125H93.75V159.25H77.5V167.375H93.75V175.5H101.875V183.625H93.75V191.75H77.5V199.875H69.375ZM61.25 167.375H69.375V159.25H61.25V167.375ZM77.5 183.625H85.625V175.5H77.5V183.625ZM110 199.875V143H126.25V151.125H134.375V159.25H142.5V151.125H150.625V143H166.875V199.875H150.625V167.375H142.5V183.625H134.375V167.375H126.25V199.875H110ZM183.125 199.875V143H199.375V191.75H231.875V199.875H183.125ZM256.25 199.875V191.75H248.125V183.625H240V159.25H248.125V151.125H256.25V143H296.875V151.125H264.375V159.25H256.25V183.625H264.375V191.75H280.625V175.5H272.5V167.375H296.875V199.875H256.25Z" fill="white"/>
</g>
<defs>
<clipPath id="clip0_21_13">
<rect width="350" height="350" fill="white"/>
</clipPath>
</defs>
</svg>
